# xmcd CD database file
#
# Track frame offsets:
#	150
#	19437
#	37932
#
# Disc length: 761 seconds
#
# Revision: 0
# Processed by: cddbd v1.5PL3 Copyright (c) Steve Scherf et al.
# Submitted via: CDex 1.50
#
DISCID=1c02f703
DTITLE=ribbon - 夜明けなんていらない
DYEAR=1993
DGENRE=JPop
TTITLE0=夜明けなんていらない
TTITLE1=メリハリで愛して
TTITLE2=夜明けなんていらない (ｶﾗｵｹ)
EXTD=YEAR: 1993/10/06
EXTT0=
EXTT1=
EXTT2=
PLAYORDER=
